<svg xmlns="http://www.w3.org/2000/svg" width="80" height="80" viewBox="0 0 80 80">
  <path d="M40 65 C24 65, 18 50, 18 40 C18 26, 30 20, 40 5 C40 20, 62 26, 62 40 C62 50, 56 65, 40 65 Z" fill="none" stroke="#d4af37" stroke-opacity="0.28" stroke-width="1.2"/>
  <path d="M40 65 C40 50, 32 45, 32 40 C32 30, 40 25, 40 15 C40 25, 48 30, 48 40 C48 45, 40 50, 40 65 Z" fill="none" stroke="#d4af37" stroke-opacity="0.15" stroke-width="0.8"/>
  <circle cx="40" cy="40" r="2" fill="#d4af37" fill-opacity="0.35"/>
  <path d="M0 0 Q20 10 10 20 M80 0 Q60 10 70 20 M0 80 Q20 70 10 60 M80 80 Q60 70 70 60" fill="none" stroke="#d4af37" stroke-opacity="0.18" stroke-width="0.8"/>
</svg>
