<svg xmlns="http://www.w3.org/2000/svg" width="60" height="90" viewBox="0 0 60 90">
  <path d="M0 90 L0 45 C0 15, 30 0, 30 0 C30 0, 60 15, 60 45 L60 90" fill="none" stroke="#d4af37" stroke-opacity="0.25" stroke-width="1"/>
  <path d="M5 90 L5 47 C5 22, 30 10, 30 10 C30 10, 55 22, 55 47 L55 90" fill="none" stroke="#d4af37" stroke-opacity="0.12" stroke-width="0.8"/>
  <path d="M30 40 C27 40, 25 36, 25 33 C25 28, 30 20, 30 20 C30 20, 35 28, 35 33 C35 36, 33 40, 30 40 Z" fill="none" stroke="#d4af37" stroke-opacity="0.3" stroke-width="1"/>
  <path d="M30 40 C29 36, 27 34, 25 33 M30 40 C31 36, 33 34, 35 33" fill="none" stroke="#d4af37" stroke-opacity="0.2" stroke-width="0.8"/>
</svg>
